<?xml version="1.0"?><svg width="673.22833" height="581.10236" xmlns="http://www.w3.org/2000/svg">
 <metadata id="metadata40">image/svg+xmlInternational Criminal Court logo scale justice blue plant vine tree</metadata>

 <g>
  <title>Layer 1</title>
  <g externalResourcesRequired="false" id="layer1">
   <g externalResourcesRequired="false" id="g2588">
    <path fill="#c11b00" fill-rule="nonzero" id="path26" d="m542.558899,268.47403c0,0 0,0 -0.231689,0l-2.781372,-5.214996l-0.115906,0l-83.788849,-152.164238l-237.923096,0l-0.811279,1.622467l-85.643021,155.756767l0.231812,0l-0.115921,0c-0.115891,0 -0.115891,0 -0.115891,0c0,0 0,0.115906 0.115891,0.231812l-0.115891,0.115906l0.347702,0c5.330902,5.9104 83.441132,88.192596 172.329071,0l0.347687,0l-0.115875,-0.231812c0.115875,0 0.115875,0 0.115875,-0.115906l-0.115875,0l0,0l0,0l-1.738312,-3.360809l-1.04306,-1.854187l-0.115906,0l-80.543854,-146.485619l0.115906,-0.23172l110.559509,0c0,0.695343 -0.811249,11.473167 -14.602264,182.99099c-0.927063,23.757629 -11.009552,31.522247 -18.890137,33.955933l-87.84494,0c-7.417053,0 -13.327393,5.562683 -13.327393,12.400238c0,6.837524 5.910339,12.284363 13.327393,12.284363l256.001953,0c7.301117,0 13.327484,-5.446838 13.327484,-12.284363c0,-6.837555 -6.026367,-12.400238 -13.327484,-12.400238l-90.046783,0c-7.99649,-2.31778 -18.194885,-10.198303 -19.121948,-33.955933c-13.67511,-171.517822 -14.486328,-182.295647 -14.602234,-182.99099l110.211853,0l-80.775635,146.717339l0,0l-2.781372,5.214996l0.115845,0l0,0l-0.23172,0c0.115875,0.115906 0.115875,0.115906 0.115875,0.115906l-0.115875,0.231812l0.347626,0c89.351563,88.192596 167.693451,5.9104 173.024445,0l0.347656,0l-0.115906,-0.115906c0.115906,-0.115906 0.115906,-0.231812 0.115906,-0.231812zm-247.194275,-5.214996l-155.177338,0l77.530701,-141.038689l77.646637,141.038689zm82.398071,0l77.762451,-141.2705l77.878418,141.2705l-155.640869,0"/>
    <path fill="#c11b00" fill-rule="nonzero" id="path28" d="m420.758026,548.813049c0,0 -67.911804,-78.805511 -147.528503,-56.786346c-36.621338,14.94986 -58.177002,25.49588 -69.997803,27.813751c-11.705017,2.085999 -39.286911,4.287903 -56.091019,-7.069336c30.826828,28.161377 59.451797,29.89978 80.543839,25.959412c21.092056,-4.056152 42.184204,-21.207947 47.630981,-25.611694c5.562744,-4.287964 25.611816,-28.161438 64.551025,-12.747894c28.161346,13.211395 63.971497,52.034698 69.997803,58.988129c10.893677,-10.546021 10.893677,-10.546021 10.893677,-10.546021"/>
    <path fill="#c11b00" fill-rule="nonzero" id="path30" d="m272.7659,490.520233c-0.115784,0 -31.522156,13.211456 -31.522156,13.211456c-18.426575,7.880585 -30.595093,12.979736 -38.359772,14.486267c-3.59259,0.695313 -35.810089,6.142212 -54.816116,-6.837494l-1.9702,2.433685c0,0.115845 0.115891,0.23175 0.115891,0.23175c25.14827,22.830444 52.614304,31.638184 81.818741,26.191223c14.022705,-2.665466 30.247375,-11.241333 48.094513,-25.7276c0.231689,-0.115906 2.317749,-1.970215 2.317749,-1.970215c7.301086,-6.605713 26.654846,-24.221008 60.842468,-10.661896c27.234314,12.747894 62.117371,49.948822 69.302582,58.524689l1.158844,1.27478l13.211517,-12.747925l-1.042999,-1.158875c-0.695313,-0.811279 -69.418396,-79.269104 -149.151062,-57.249847zm-69.186584,30.826813c7.99649,-1.506592 20.280914,-6.721741 38.823303,-14.718048l31.406311,-13.095734c74.169922,-20.512543 138.605011,48.442261 144.747162,55.163879c-1.622375,1.622498 -6.9534,6.72168 -8.691742,8.344177c-8.923615,-10.198425 -42.415894,-45.544983 -69.418396,-58.061096c-36.04187,-14.370483 -56.438599,4.171997 -64.203278,11.241364l-1.854279,1.738312c-17.615326,14.138611 -33.376465,22.598633 -47.051453,25.148254c-24.916504,4.751465 -48.558167,-1.970215 -70.577362,-18.774292c19.585541,6.837585 43.57486,3.59259 46.819733,3.013184"/>
    <path fill="#c11b00" fill-rule="nonzero" id="path32" d="m258.047852,488.434113c0,0 -43.80658,9.387146 -60.263062,14.13858c-16.45636,4.867523 -72.083839,5.794586 -104.53315,-43.574768c25.727707,21.092041 57.24987,21.092041 69.881905,20.628571c12.747955,-0.347748 45.544983,4.519745 61.653732,7.532806c-0.34761,-3.013062 -16.572281,-6.605713 -21.439758,-9.155334c-4.867386,-2.549561 -18.542389,-6.605713 -35.114761,-42.76355c-5.562729,-11.009613 -6.489899,-17.151794 -10.314209,-20.512543c6.953384,1.042938 20.512589,15.645111 24.684631,20.04895c4.172043,4.403839 29.436157,33.49234 43.806595,40.909363c14.370422,7.532867 21.439774,11.125549 31.638077,12.747925"/>
    <path fill="#c11b00" fill-rule="nonzero" id="path34" d="m156.875488,416.002625c2.086029,1.738281 3.244965,4.519684 4.983276,8.807648l4.983307,11.125519c15.413391,33.72406 28.277252,39.866272 34.419434,42.879395l1.274872,0.579468l8.923523,3.245026c0.927155,0.347565 2.201935,0.811127 3.360809,1.158875c-16.572281,-2.665497 -40.793427,-6.026245 -51.687164,-5.67865c-28.161346,0.811279 -51.339424,-6.026276 -68.83886,-20.396729l-2.433746,2.201935c31.290451,47.3992 86.10659,50.180542 106.387489,44.154175c16.108749,-4.751434 59.683517,-13.906769 60.147141,-14.022705l-0.115906,-3.128967c-10.082489,-1.738403 -17.151825,-5.331024 -31.17453,-12.632111c-12.168518,-6.374054 -32.797058,-29.08847 -40.561707,-37.664368l-2.781372,-3.013123l-1.042969,-1.043091c-8.691803,-9.155365 -18.426575,-18.542419 -24.568817,-19.353638l-1.27478,2.781342zm55.511566,63.623871l-8.344086,-3.013214l-1.390808,-0.695313c-5.446793,-2.549561 -17.962952,-8.691833 -32.912811,-41.372864c0,-0.115906 -4.983307,-11.009613 -4.983307,-11.009613c-0.927155,-2.433685 -2.086014,-3.59259 -3.129089,-5.330963c6.373993,3.708435 15.065796,12.63208 18.774307,16.572296l1.042953,1.043091l2.665558,3.013153c7.880585,8.575806 28.85672,31.753967 41.604675,38.35968c10.893738,5.678589 17.731232,9.155365 25.032379,11.241364c-13.095673,2.897278 -41.025345,8.923615 -53.425568,12.632111c-18.426575,5.446838 -66.173508,3.013062 -96.884407,-35.346558c16.919998,10.893616 37.896126,16.340454 62.812614,15.529297c12.168503,-0.347717 43.806564,4.172058 61.190201,7.416962l2.086014,0.46347l-0.231796,-2.201782c0,-0.463623 -0.927155,-0.811249 -1.27478,-1.274872l0,0c0,0 -0.115906,-0.115784 -0.115906,-0.115784c-1.506592,-1.854309 -4.983307,-3.476837 -12.516144,-5.910461"/>
    <path fill="#c11b00" fill-rule="nonzero" id="path36" d="m177.156281,470.818756c0,0 -22.019104,-6.026276 -38.35968,-8.344086c-16.456459,-2.201965 -73.822235,-16.688232 -96.189056,-84.020569c22.598633,26.307129 27.697739,27.929596 40.909309,34.535339c13.327393,6.605804 53.425438,29.436188 67.332359,41.952393c4.056152,2.317749 4.056152,2.317749 4.056152,2.317749c0,0 1.390686,-1.738312 -4.75148,-6.95343c-5.910446,-5.330933 -26.191246,-23.757507 -29.320335,-65.014496c-2.549545,-18.194763 -6.605789,-34.767151 -7.880554,-36.969116c9.155334,5.215149 19.933174,26.307159 22.135109,32.21759c2.201935,6.026276 17.035889,47.631042 19.006012,52.614288c1.854218,4.867401 13.90683,31.290344 23.062164,37.664337"/>
    <path fill="#c11b00" fill-rule="nonzero" id="path38" d="m111.562309,349.017914c1.04306,1.854279 5.099197,17.963074 7.648758,36.505524c1.506592,19.353668 7.880554,46.587982 29.899773,65.94165c0.115875,0 0.115875,0 0.115875,0.115936c-15.297485,-12.632172 -51.687126,-33.376495 -65.014519,-39.982269l-2.086014,-1.158875c-11.473175,-5.67865 -17.267715,-8.459991 -38.243858,-33.028809l-2.781372,1.506622c24.336945,73.358673 90.046799,84.252289 97.463867,85.179474c16.108749,2.085999 37.896118,8.344086 38.12793,8.344086l1.390686,-2.781403c-8.460007,-6.026306 -20.280792,-31.1745 -22.598633,-37.08493l-18.890106,-52.498291c-2.086029,-5.44693 -12.979774,-27.466125 -22.830467,-33.144806l-2.20192,2.08609zm44.617836,109.168793c0.347717,-0.347656 0.463531,-0.811249 0.463531,-1.390686c0,-1.506592 -1.042969,-3.940216 -5.446823,-7.648743c-21.092056,-18.774292 -27.350121,-45.08136 -28.740807,-63.971558c-1.738388,-12.516174 -4.287949,-24.684692 -6.258057,-31.753937c7.648743,7.648712 15.529305,22.714508 17.383507,27.697784l19.006042,52.614349c1.274765,3.360748 10.777817,24.221069 19.70134,34.187531c-7.416946,-1.854156 -21.671463,-5.446777 -33.376358,-6.953369c-6.721695,-0.927063 -64.782814,-11.241394 -90.858154,-74.053925c15.761131,17.499359 22.250916,21.323822 32.565224,26.423035l2.20192,1.042969c13.790924,6.95343 53.309547,29.436096 66.984642,41.720551c0.231812,0.231842 4.40387,2.549652 4.40387,2.549652l1.158875,0.695313l0.811249,-1.158966"/>
    <path fill="#c11b00" fill-rule="nonzero" id="path40" d="m115.850258,415.886719c0,0 -27.581924,-16.108734 -42.763611,-27.929626c-15.181595,-11.936707 -57.8293,-42.995331 -53.425453,-98.15918c6.605789,17.847137 17.38353,34.071777 29.088524,43.922485c11.704887,9.966583 32.912842,41.257019 38.012039,48.558044c4.983292,7.301178 8.459991,9.27124 8.459991,9.27124c0,0 1.622498,-3.59259 -4.056137,-9.850708c-4.172043,-6.721558 -11.704987,-22.482727 -7.648758,-56.902161c5.099197,-31.985748 6.953415,-39.634521 6.02626,-44.617798c4.403854,11.241425 10.198395,35.462494 12.40033,73.358673c1.274765,21.439728 3.70842,38.011993 6.489883,45.313171c2.897171,7.18515 7.416931,17.035858 7.416931,17.035858"/>
    <path fill="#c11b00" fill-rule="nonzero" id="path42" d="m88.036522,280.526672c0.115906,0.695313 0.115906,1.506561 0.115906,2.433716c0,3.59259 -0.927048,9.27124 -2.897263,21.323853l-3.244904,20.280823c-0.811234,6.837463 -1.274765,13.095551 -1.274765,19.005981c0,16.224701 3.013077,29.320313 9.039429,38.93924c1.970123,2.085999 2.897263,3.708466 3.476715,5.099152c-1.390701,-1.390686 -3.129089,-3.244995 -5.215118,-6.258026c0,0 -1.738297,-2.433716 -1.738297,-2.433716c-6.953415,-10.198303 -25.727722,-37.200806 -36.505547,-46.35614c-11.473083,-9.734894 -22.135017,-25.843658 -28.740791,-43.343109l-3.013184,0.463593c-4.287949,54.004944 35.346581,84.831757 52.266579,98.15921l1.738403,1.27478c15.065773,11.820831 42.647713,28.045502 42.879433,28.161377l2.317825,-1.970154l-7.301132,-17.035889c-2.781357,-7.417053 -5.215012,-24.105225 -6.489792,-44.849579c-2.665543,-45.89267 -10.19838,-68.143646 -12.400314,-73.822296l-3.013184,0.927185zm0.347717,24.2211c1.27478,-7.301117 1.970123,-11.936707 2.433655,-15.645233c3.129074,10.893768 7.532944,31.290466 9.503052,64.551056c1.27478,20.976105 3.708527,38.011993 6.721695,45.776642c0,0 3.244888,7.532959 5.330917,12.632019c-8.22818,-4.983276 -26.886581,-16.45636 -38.359756,-25.379944l-1.738304,-1.390656c-15.645226,-12.284363 -51.339523,-40.098114 -51.339523,-87.613159c0,-0.579498 0,-1.158875 0,-1.738434c6.837509,15.761108 16.108749,30.015656 26.770683,39.055054c10.546021,8.80777 29.088509,35.694336 36.041916,45.776855l1.622498,2.433594c5.215103,7.417084 8.923615,9.618988 9.039429,9.734802l1.622498,0.927155l0.579437,-1.738403c0.347717,-0.463531 1.854294,-4.751465 -4.287964,-11.588989c-7.648743,-12.284454 -10.082382,-31.058624 -7.185211,-55.511566c0,0 3.24498,-20.280792 3.24498,-20.280792"/>
    <path fill="#c11b00" fill-rule="nonzero" id="path44" d="m69.957657,339.0513c0,0 -9.503052,-14.834015 -18.078964,-24.568726c-8.575806,-9.502991 -46.472027,-52.382507 -26.886574,-124.698181c0,16.804199 2.317833,26.307159 4.056229,32.333496c1.970116,5.91037 20.744331,46.240234 22.59864,57.134003c1.85421,10.893738 4.983284,31.406311 9.387146,33.72406c1.622398,-1.042969 -0.231812,-4.635559 -0.811249,-7.996368c-0.695343,-3.244965 -6.142258,-31.290436 10.314209,-61.769653c14.949883,-26.77066 17.731239,-29.320313 19.933174,-38.591553c0.695343,17.499512 -4.983292,52.150757 -9.503052,66.75293c-4.40377,14.486359 -16.340569,48.210419 -11.00956,67.679993"/>
    <path fill="#c11b00" fill-rule="nonzero" id="path46" d="m50.719826,315.64151c8.344101,9.387054 17.847153,24.105164 17.847153,24.221039l2.89727,-1.27475c-4.635674,-16.919983 4.519669,-45.892639 9.387154,-61.537842l1.622391,-5.215118c4.287964,-13.90683 10.314316,-49.021606 9.618973,-67.332275l-3.129089,-0.347717c-1.622498,6.373962 -3.360794,9.618866 -9.503052,20.164978l-10.314209,18.194794c-9.734779,17.962952 -11.936714,35.230682 -11.936714,47.283295c0,7.069275 0.811256,11.936707 1.27478,14.486328c-2.086014,-7.069336 -3.940224,-17.383575 -4.983284,-22.94635l-0.347633,-2.31781c-1.274872,-7.648773 -10.082489,-28.161377 -16.572372,-43.111267l-5.910439,-14.254517c-1.738312,-5.562744 -4.056145,-15.065704 -4.056145,-31.869904l-3.128983,-0.463531c-12.863861,47.3992 -3.129089,92.24884 27.2342,126.320648zm2.317841,-2.201935c-21.092049,-23.525757 -31.869881,-52.498383 -31.869881,-83.904724c0,-8.807617 1.158867,-17.731262 2.781372,-26.770691c0.811241,9.387146 2.317825,15.645233 3.592606,19.817261c0,0 6.142159,14.602173 6.142159,14.602173c6.026352,13.906921 15.181694,35.114868 16.340561,42.30011c0,0 0.347725,2.433655 0.347725,2.433655c2.897179,16.340546 5.562729,30.131561 9.966484,32.44928l0.811256,0.347748l0.811249,-0.463654c0.927147,-0.579468 1.274765,-1.622345 1.274765,-2.665466c0,-1.27475 -0.347618,-2.665466 -0.81115,-4.056152l-0.695335,-2.781342c-0.463631,-2.086029 -1.390785,-7.416992 -1.390785,-15.065735c0,-11.58902 2.201935,-28.277313 11.704994,-45.660858l10.198402,-18.078949c2.897171,-5.099182 4.867371,-8.459991 6.258072,-11.473175c-0.92717,18.774323 -5.562729,44.84964 -9.039536,56.438721l-1.622406,5.215027c-4.287941,13.559235 -10.89373,34.303589 -10.89373,51.339478c0,1.854248 0.463615,3.476746 0.695335,5.215057c-3.592606,-5.215057 -9.155342,-13.095612 -14.602158,-19.237762"/>
    <path fill="#c11b00" fill-rule="nonzero" id="path48" d="m54.080627,251.090515c0,0 -5.678635,-23.062256 -12.632042,-41.488831c-6.953407,-18.542419 -20.2808,-61.537842 14.254539,-106.387383c-7.301132,17.847046 -4.403862,29.436119 -4.403862,31.406242c0,1.970123 4.287949,41.604645 4.403862,51.455444c0.115898,12.63205 -2.201927,34.419434 -2.201927,34.419434c0,0 0.811234,2.665436 2.549637,0c1.042969,-1.622498 3.360802,-29.783875 20.2808,-46.587952c15.645226,-15.645233 28.393166,-27.466034 31.869881,-33.955902c0,11.473083 -6.605789,28.393158 -12.052612,37.548492c-5.331009,9.271271 -27.466019,39.634552 -32.565216,49.832855c-4.983292,10.314301 -9.503059,22.482819 -9.503059,23.757599"/>
    <path fill="#c11b00" fill-rule="nonzero" id="path50" d="m39.941994,210.181213c6.837601,18.078857 12.516228,41.141022 12.63205,41.372833l3.129082,-0.347626c0.115898,-1.274872 4.287949,-12.747955 9.387154,-23.062256c2.89727,-6.026276 11.820793,-19.121918 19.817261,-30.710907l12.63205,-19.121948c5.910431,-10.082489 12.168503,-27.002472 12.168503,-38.359741l-2.897263,-0.811249c-2.781357,5.215027 -11.820801,14.138641 -23.409882,25.495911l-8.22818,8.112274c-14.02282,13.906921 -18.310776,35.694305 -19.933174,43.80658c0,0 -0.347717,1.854309 -0.463631,2.665558c0.579529,-2.897278 2.433739,-33.144653 2.433739,-33.144653l-3.24498,-40.677612l-1.158867,-12.284424c-0.231812,-1.390656 -0.463531,-3.59259 -0.463531,-6.489769c0,-5.330994 0.927063,-13.095673 4.75148,-22.830444l-2.665459,-1.622498c-24.452942,31.869896 -29.32032,68.143608 -14.486351,108.009972zm3.013184,-1.158966c-5.446831,-14.602173 -8.228195,-28.740814 -8.228195,-42.300018c0,-19.006012 5.678635,-36.853149 16.340561,-53.657249c-1.274864,5.330933 -1.854301,10.082397 -1.854301,13.559204c0,3.013084 0.231812,5.330925 0.347717,6.837486c0.23172,1.158875 1.158867,12.284424 1.158867,12.284424l3.360802,40.329895c0,0 -2.201935,34.187592 -2.201935,34.187592c0.231819,1.04306 0.811249,2.781372 2.433739,2.897278c1.158882,0.231812 2.201935,-0.463531 3.013184,-1.854218c0,0 1.042969,-4.172028 1.042969,-4.172028c1.62249,-7.880585 5.678635,-28.856812 19.006027,-42.068268c0,0 8.344177,-8.22821 8.344177,-8.22821c9.50296,-9.387146 15.992844,-16.108826 20.164886,-21.555664c-1.506592,10.893738 -6.837494,24.22113 -11.125458,31.522278l-12.516129,18.890106c-7.996475,11.589081 -17.035912,24.800568 -20.04908,30.942719c-3.013184,6.142273 -6.026352,13.559204 -7.880577,18.774292c-2.20192,-7.880554 -6.373962,-23.293976 -11.357254,-36.389618"/>
    <path fill="#c11b00" fill-rule="nonzero" id="path52" d="m64.047218,172.516785c0,0 2.549637,-6.373993 0.231804,-32.101685c-2.433739,-25.727715 -3.4767,-60.842491 36.389641,-84.484184c-9.966583,16.688293 -11.589081,19.585571 -14.602264,33.26059c-3.013168,13.559174 -6.373962,35.346558 -11.820786,47.630974c-2.201927,6.026367 -3.592606,10.777832 -2.549644,11.357269c0.927147,0.579437 1.390678,-0.463531 2.086113,-2.54953c0.927063,-2.08606 9.039429,-20.512627 25.495819,-32.217613c16.456451,-11.704895 31.290428,-23.409882 36.853157,-34.99884c-2.43364,21.439636 -10.546028,29.088501 -18.658302,39.866241c-8.807709,11.704979 -40.445778,36.157829 -45.776787,44.154289c-5.446823,7.880554 -7.64875,10.082489 -7.64875,10.082489"/>
    <path fill="#c11b00" fill-rule="nonzero" id="path54" d="m62.656532,140.531006c2.317833,24.684662 -0.115906,31.290436 -0.115906,31.290436l2.549652,1.854218l7.880554,-10.430115c2.433655,-3.592621 11.009552,-11.125458 19.933075,-19.121918c10.430222,-9.155365 21.208054,-18.658409 25.843628,-24.916466c0,0 3.244888,-4.172058 3.244888,-4.172058c6.953499,-8.923523 13.559212,-17.383606 15.761116,-36.389618l-3.013153,-0.927063c-5.562744,11.473083 -20.744331,23.293945 -36.389549,34.419434c-11.936707,8.459961 -19.46965,20.280754 -23.293983,27.35009c0.23172,-0.811157 0.347633,-1.042969 0.695343,-2.086029c4.17205,-9.27124 6.953423,-23.873405 9.618874,-36.62133l2.20192,-11.241394c3.013184,-13.211456 4.40387,-15.877014 14.486359,-32.797028l-2.201935,-2.201935c-42.879517,25.495911 -39.170998,64.898743 -37.200882,85.990776zm4.172043,18.658386c0,-4.751556 -0.23172,-10.893738 -1.042961,-18.890198c-0.463615,-4.983307 -0.927147,-11.009552 -0.927147,-17.615318c0,-18.774231 5.562721,-42.068207 30.131561,-60.147156c-6.142258,10.430115 -7.99646,14.94989 -10.430206,26.307129l-2.43364,11.241394c-2.433746,12.632019 -5.331017,27.002472 -9.387154,36.157799c-2.201935,5.910461 -3.013184,9.155334 -3.013184,11.009552c0,1.274872 0.463631,1.854309 1.158974,2.317841l0.57943,0.347717l1.390678,-0.115906c1.27478,-0.463623 1.854218,-1.854309 2.433647,-3.708527c0.811249,-1.854218 9.039528,-20.049065 24.916466,-31.406334c13.095673,-9.27124 25.495911,-19.121918 32.912941,-28.856689c-2.665543,12.63205 -7.764671,19.701355 -13.675102,27.350189l-3.244888,4.056152c-4.519775,6.026245 -15.529327,15.876915 -25.380096,24.568748c-9.502975,8.459991 -17.847061,15.761108 -20.512611,19.701355c0,0 -1.85421,2.549652 -3.708427,4.983307c0.115822,-1.970123 0.23172,-4.172058 0.23172,-7.301056"/>
    <path fill="#c11b00" fill-rule="nonzero" id="path56" d="m93.831062,104.257271c0,0 5.215118,-27.234192 15.645218,-43.343048c10.43013,-16.108765 32.101692,-30.363283 54.932045,-37.432619c-7.996384,6.72171 -12.863754,12.747953 -15.645142,17.615358c-2.781342,4.751556 -20.049072,31.753967 -27.929634,40.329865c-8.112366,8.575897 -21.092041,16.340576 -27.002487,22.830444"/>
    <path fill="#c11b00" fill-rule="nonzero" id="path58" d="m108.085609,59.98716c-10.43013,16.22467 -15.529312,42.879425 -15.761139,43.922485l2.781372,1.390686l11.589081,-9.850677l15.181686,-12.979767c8.228188,-8.807709 25.611702,-35.926025 28.277275,-40.561676c3.244888,-5.678654 8.344101,-11.473177 15.297501,-17.267626l-1.506577,-2.665573c-24.105225,7.417053 -45.429085,22.019197 -55.8592,38.012148zm2.781372,1.738308c8.807709,-13.675014 26.423058,-26.075344 46.587944,-33.839994c-4.056152,4.17206 -7.648773,8.344084 -10.082413,12.40024c-2.665558,4.519745 -19.817268,31.406342 -27.813744,40.098145c0,0 -19.585449,16.572296 -23.178055,19.585449c1.970123,-8.344086 6.837494,-26.422943 14.486267,-38.243839"/>
    <path fill="#c11b00" fill-rule="nonzero" id="path60" d="m258.511475,550.899048c0,0 65.941589,-80.543793 146.021881,-60.494751c37.084991,14.022705 58.75647,23.989319 70.693176,25.843506c11.820862,1.970154 39.286896,3.476746 55.859283,-8.459961c-30.131622,28.972595 -58.7565,31.522217 -79.848633,28.045532c-21.207916,-3.476807 -42.647583,-20.049072 -48.210419,-24.337036c-5.562714,-4.287964 -26.422974,-27.466003 -64.782715,-11.125397c-28.045441,13.906769 -62.812622,53.54129 -68.607117,60.726532c-11.125458,-10.198425 -11.125458,-10.198425 -11.125458,-10.198425"/>
    <path fill="#c11b00" fill-rule="nonzero" id="path62" d="m257.236603,549.856079l-0.927063,1.158875l13.559204,12.40033l1.042969,-1.390686c7.069305,-8.691772 41.141113,-46.819763 68.027649,-60.263062c33.724121,-14.370422 53.541382,2.781372 60.958435,9.271301l2.085999,1.738281c18.426605,14.022705 34.767151,22.366821 49.021667,24.684631c29.204346,4.635681 56.554596,-4.867371 81.007416,-28.277222c0.115906,-0.115906 0.115906,-0.115906 0.115906,-0.231812l-1.970093,-2.433655c-18.774353,13.443298 -51.107758,8.807617 -54.700409,8.228149c-7.764618,-1.27478 -19.8172,-6.026215 -38.127869,-13.327393l-32.217621,-12.516113c-80.312012,-20.164978 -147.180847,60.147156 -147.87619,60.958374zm146.949158,-57.94519l31.985779,12.516113c18.542389,7.301147 30.710907,12.168518 38.823242,13.443298c3.013184,0.463562 25.843506,3.592651 44.849579,-2.897278c-21.092072,16.456482 -43.922516,23.178101 -68.375366,19.237854c-13.559174,-2.201904 -29.552032,-10.198425 -47.283234,-23.873413c-0.231873,-0.115875 -2.201965,-1.738403 -2.201965,-1.738403c-7.880554,-6.837524 -28.740906,-24.916412 -64.435059,-9.618835c-26.539001,13.09552 -59.335938,49.253357 -68.02771,59.799377c-1.738403,-1.506592 -7.185242,-6.605774 -8.807709,-7.99646c5.910431,-6.953369 68.607239,-77.53064 143.472443,-58.872253"/>
    <path fill="#c11b00" fill-rule="nonzero" id="path64" d="m419.715057,486.463989c0,0 44.038391,8.112366 60.494751,12.516235c16.572418,4.403748 72.315704,3.940186 103.60611,-46.240356c-25.264099,21.787415 -56.902222,22.598633 -69.534302,22.482727c-12.632019,-0.115875 -45.429108,5.562744 -61.30603,9.039459c0.231842,-3.128998 16.340576,-7.069305 21.207977,-9.734772c4.751495,-2.665466 18.310669,-7.069336 33.955902,-43.690674c5.446838,-11.125458 6.142151,-17.383606 9.966614,-20.744446c-6.95343,1.27478 -20.165009,16.22467 -24.221161,20.62854c-4.172028,4.635559 -28.740845,34.303589 -42.879456,42.068237c-14.13858,7.996399 -21.207916,11.58902 -31.290405,13.675049"/>
    <path fill="#c11b00" fill-rule="nonzero" id="path66" d="m493.884918,428.402832l-1.158875,1.274811l-3.129089,3.476776c-7.532837,8.691742 -27.466003,31.753967 -39.286804,38.243835c-14.370422,8.112305 -21.207947,11.473083 -30.94281,13.443329l0,3.128998c0.347717,0.115936 44.154297,8.228149 60.494812,12.516113c20.396729,5.562805 75.212982,1.390717 105.228546,-46.935547l-2.317749,-1.970123c-17.2677,14.833954 -40.329956,22.250885 -68.375427,22.019104c-11.009552,-0.115784 -34.998871,3.824463 -51.687134,7.069305c1.158875,-0.463562 2.433685,-0.927032 3.476654,-1.27478l8.691864,-3.476685l1.390656,-0.695374c5.562775,-2.781342 18.658417,-9.50293 33.376495,-43.690643l4.751465,-11.241364c1.622498,-4.287964 2.781372,-7.185242 4.635681,-8.923645l-1.274841,-2.781342c-6.026337,1.04306 -15.413452,10.54599 -23.873444,19.81723zm-42.068176,45.89267c12.284302,-6.953461 31.869751,-29.436157 40.213928,-39.055084l3.013123,-3.360809l1.274841,-1.390717c3.59259,-3.940247 11.936707,-12.863861 18.078888,-16.804108c-0.927124,1.738373 -2.085999,3.013184 -3.013184,5.446808l-4.63559,11.009674c-14.254517,33.260529 -26.654785,39.518585 -31.985748,42.299988l-1.390717,0.695343c0,0 -8.22821,3.244904 -8.22821,3.244904c-7.532898,2.665527 -10.893677,4.403839 -12.400269,6.258179c0,0 -0.115906,0.115753 -0.115906,0.115753l0,0c-0.347656,0.463623 -1.158905,0.927216 -1.27478,1.390808l-0.115936,2.201874l2.086029,-0.579468c14.833984,-3.244904 47.978699,-9.039429 60.958405,-8.923523c24.916504,0.115875 45.776794,-5.794586 62.465027,-17.267731c-29.89978,39.286926 -77.530731,42.879517 -96.073181,37.89624c-12.40036,-3.360901 -40.561707,-8.807709 -53.773193,-11.241394c7.069305,-2.31781 13.790924,-5.794556 24.916473,-11.936737zm57.829315,-42.76355l0,0"/>
    <path fill="#c11b00" fill-rule="nonzero" id="path68" d="m500.258881,466.762604c0,0 21.671478,-6.721588 38.012054,-9.27121c16.456482,-2.665436 73.474609,-18.658325 94.103027,-86.570251c-21.903259,26.886597 -26.886536,28.625 -39.982117,35.694366c-13.095703,6.837494 -52.730225,30.595093 -66.405212,43.458893c-4.056274,2.433655 -4.056274,2.433655 -4.056274,2.433655c0,0 -1.158875,-1.622498 4.635681,-6.9534c5.910461,-5.446777 25.727722,-24.45285 27.929565,-65.825745c2.086121,-18.194763 5.794556,-34.767151 7.069336,-37.200836c-9.039429,5.562744 -19.353699,27.002411 -21.439697,32.912872c-2.085999,6.026337 -15.99292,47.978607 -17.731262,52.961884c-1.854309,4.983368 -13.211578,31.638184 -22.135101,38.359772"/>
    <path fill="#c11b00" fill-rule="nonzero" id="path70" d="m538.618652,374.977417l-17.731201,52.961945c-2.317871,6.14212 -13.443329,31.406311 -21.671539,37.548492l1.390717,2.781311c0.231659,0 21.903259,-6.72168 38.012024,-9.27124c7.301147,-1.158875 72.779175,-13.675079 95.377808,-87.613129l-2.781372,-1.506592c-20.628479,25.264099 -25.959412,28.045441 -37.548462,34.187714l-2.08606,1.042999c-12.979736,6.953339 -48.326294,28.277283 -63.739746,41.372894c21.439758,-20.049072 27.234314,-47.283264 28.277283,-66.637024c2.085999,-18.658386 5.67865,-34.651245 6.837585,-36.505554l-2.31781,-2.201843c-9.734802,6.026245 -20.049072,28.393097 -22.019226,33.840027zm-14.718079,54.004883c0,0 17.731262,-52.961914 17.731262,-52.961914c1.738281,-5.099243 9.27124,-20.280792 16.688171,-28.161377c-1.738281,7.069366 -3.940186,19.006042 -5.446777,31.638062c-1.506592,27.466125 -10.661987,49.253479 -27.35022,64.898773c-4.056152,3.708344 -5.215027,6.14212 -5.215027,7.648712c0,0.579407 0.115906,1.158875 0.463501,1.506592l0.811279,1.042999l5.215088,-3.129059c13.559143,-12.632019 52.614197,-36.157837 66.289307,-43.458923l1.970154,-1.042969c10.31427,-5.44696 16.688232,-9.387146 32.101685,-27.466125c-24.452942,63.508057 -82.282288,75.212982 -89.119751,76.371765c-11.589111,1.85434 -25.727722,5.67865 -33.144684,7.880615c8.691742,-10.082397 17.49942,-30.595032 19.006012,-34.767151"/>
    <path fill="#c11b00" fill-rule="nonzero" id="path72" d="m560.174255,410.323975c0,0 27.118347,-16.919983 42.068237,-29.204407c14.833984,-12.168518 56.786377,-44.270111 51.107727,-99.318115c-6.258057,17.963043 -16.572388,34.419525 -28.045532,44.617828c-11.473083,10.198364 -31.869873,42.068207 -36.737305,49.485199c-4.983276,7.417023 -8.344055,9.503052 -8.344055,9.503052c0,0 -1.738342,-3.592651 3.824402,-10.082489c3.940247,-6.605652 11.241394,-22.714539 6.258057,-56.902191c-5.794495,-31.985779 -7.764648,-39.518677 -7.069275,-44.386047c-4.056152,11.241333 -9.27124,35.462463 -10.546021,73.474609c-0.695374,21.555542 -2.897278,38.12793 -5.562744,45.428955c-2.665527,7.417053 -6.953491,17.383606 -6.953491,17.383606"/>
    <path fill="#c11b00" fill-rule="nonzero" id="path74" d="m571.067993,347.511414c-0.695374,20.744263 -2.781372,37.548401 -5.446838,44.849487l-6.837585,17.383698l2.31781,1.970093c0.231812,-0.231842 27.35022,-17.151825 42.184204,-29.320343l1.738281,-1.390686c16.572388,-13.675018 55.511597,-45.429047 49.948853,-99.43396l-3.129089,-0.347717c-6.142151,17.847198 -16.22467,33.955872 -27.581909,44.038391c-10.546021,9.387177 -28.625,36.85318 -35.462524,47.283295l-1.622498,2.549683c-2.085999,3.013031 -3.708374,4.867371 -4.983276,6.258057c0.463623,-1.27478 1.274902,-2.897308 3.013184,-4.983307c5.562744,-9.27121 8.344116,-21.671539 8.344116,-36.737274c0,-6.72171 -0.463562,-13.906952 -1.622437,-21.439789c0,-0.115906 -3.824402,-20.628479 -3.824402,-20.628479c-2.31781,-12.284424 -3.360779,-17.847168 -3.360779,-21.323853c0,-0.695374 0,-1.390686 0.115906,-1.970093l-3.013184,-0.811279c-2.201965,5.794556 -9.155334,28.277283 -10.777832,74.054077zm-2.433655,46.008484c2.781372,-7.648834 4.983215,-24.800507 5.678528,-45.89267c1.158997,-33.26059 5.099182,-53.657318 7.99646,-64.66684c0.463623,3.59259 1.27478,8.228149 2.665466,15.18161l3.824402,20.512634c1.043091,7.532867 1.622498,14.602203 1.622498,21.092041c0,14.370392 -2.665527,26.191193 -7.764648,34.76712c-3.476685,4.056213 -4.287964,7.301086 -4.287964,9.271271c0,1.27475 0.347656,2.085999 0.463562,2.201904l0.695313,1.738403l1.506592,-0.927155c0.231812,-0.115906 3.824463,-2.433777 8.807739,-9.966614l1.738281,-2.549561c6.72168,-10.31427 24.568787,-37.548492 34.883057,-46.587921c10.314209,-9.271271 19.237854,-23.757568 25.611816,-39.634583c0.115784,1.274841 0.23175,2.665497 0.23175,3.940277c0,46.12439 -34.187622,74.169891 -49.369324,86.57019l-1.738342,1.390717c-11.241455,9.27124 -29.552124,21.207916 -37.664368,26.422974c1.970093,-4.983307 5.099182,-12.8638 5.099182,-12.8638"/>
    <path fill="#c11b00" fill-rule="nonzero" id="path76" d="m604.212646,332.213806c0,0 9.155334,-15.065796 17.499512,-24.916504c8.344055,-9.734741 45.313171,-53.657227 23.989319,-125.393463c0.347595,16.804199 -1.622498,26.423065 -3.360901,32.449402c-1.738342,5.910339 -19.469543,46.703857 -21.092041,57.597504c-1.738342,11.009644 -4.40387,31.522278 -8.807617,33.955872c-1.506592,-0.927032 0.347595,-4.635559 0.811157,-7.880554c0.579529,-3.360748 5.330994,-31.638062 -11.820801,-61.537811c-15.529297,-26.307037 -18.426575,-28.972595 -20.744446,-38.12796c-0.347595,17.499451 6.258179,52.034882 10.893738,66.405212c4.867432,14.486389 17.615356,47.862885 12.63208,67.448303"/>
    <path fill="#c11b00" fill-rule="nonzero" id="path78" d="m644.078979,181.903839c0,1.390686 0,2.897278 0,4.287964c0,11.009644 -1.043091,20.049072 -3.244873,27.697815l-5.794556,14.94989c-6.026367,14.94989 -14.254578,35.462494 -15.413513,42.879517l-0.463562,3.128998c-0.811218,5.67865 -2.31781,15.297607 -4.171997,22.019165c0.347717,-2.31781 0.927124,-6.258057 0.927124,-12.052612c0,-12.052582 -2.31781,-30.247375 -13.211548,-49.137573c0,0 -10.777771,-17.962952 -10.777771,-17.962952c-6.258179,-10.314301 -8.112366,-13.559204 -9.734863,-19.701355l-3.244873,0.347595c-0.231812,18.078979 6.605774,53.07785 11.125427,66.984741l1.854309,5.330933c5.215027,15.413391 15.065735,44.154297 10.777771,61.190186l2.897278,1.158875c0.115906,-0.115906 9.155334,-15.065765 17.383606,-24.684631c29.552063,-34.767151 38.12793,-79.848511 24.22113,-126.900085l-3.129089,0.463531zm-30.826904,125.393463c4.40387,-2.433655 6.72168,-15.992859 9.03949,-31.985657l0.463562,-3.013184c1.158875,-7.185242 9.618835,-28.277283 15.181702,-42.299988l5.910339,-15.181702c1.158936,-4.056152 2.31781,-11.125458 2.897278,-20.62851c2.31781,10.314301 3.708496,20.512604 3.708496,30.479187c0,30.13147 -10.08252,58.292938 -29.899719,81.586884c-5.215027,6.142151 -10.546082,14.022797 -14.022766,19.353638c0.115906,-1.274689 0.463562,-2.317657 0.463562,-3.592468c0,-17.151855 -7.301086,-38.591614 -12.052612,-52.382507l-1.854248,-5.330994c-3.708496,-11.589081 -8.807678,-37.316711 -10.198364,-55.975098c1.506592,2.897247 3.36084,6.142151 6.373962,11.009644l10.777832,17.962952c10.430115,18.310669 12.632019,35.810211 12.632019,47.39917c0,6.489868 -0.695313,11.241394 -0.927063,12.979828c-0.115906,0 -0.811218,3.013184 -0.811218,3.013184c-0.231812,1.390625 -0.695374,2.665375 -0.695374,3.824249c0,1.159027 0.347656,2.201965 1.390686,2.781372l0.811279,0.463654l0.811157,-0.463654"/>
    <path fill="#c11b00" fill-rule="nonzero" id="path80" d="m618.003662,244.021179c0,0 5.214966,-23.293945 11.704895,-41.952362c6.489868,-18.658386 18.774292,-61.885529 -16.688232,-105.92382c7.648743,17.615326 5.099243,29.320221 5.215027,31.290344c0,1.970207 -3.476685,41.720543 -3.244873,51.571312c0.115906,12.63205 3.013184,34.303528 3.013184,34.303528c0,0 -0.811279,2.665466 -2.549683,0.115906c-1.158875,-1.738403 -4.056152,-29.783844 -21.323853,-46.12442c-16.108765,-15.18158 -29.08844,-26.654755 -32.68103,-33.144653c0.23175,11.589081 7.301025,28.161377 12.86377,37.316711c5.562805,9.039429 28.393188,38.939178 33.724182,49.021698c5.215027,10.082489 9.966614,22.135101 9.966614,23.525757"/>
    <path fill="#c11b00" fill-rule="nonzero" id="path82" d="m611.513733,96.84034c4.63562,10.314209 5.446838,18.542389 5.446838,23.873413c0,2.31781 -0.115906,4.056122 -0.231689,5.215088l-0.927185,11.588982l-2.433716,41.488831c0,0 1.854309,21.092041 2.665527,30.247375c-1.970215,-8.923615 -6.605774,-29.667938 -20.860291,-42.9953c0,-0.115936 -8.807739,-8.460114 -8.807739,-8.460114c-11.588989,-10.893646 -20.744324,-19.469543 -23.525696,-24.45285l-3.013184,0.811249c0.231812,11.357269 6.95343,28.045471 13.095581,38.12796l13.211609,19.006012c8.228149,11.241364 17.383484,24.105225 20.396667,29.89978c5.446838,10.314209 9.734802,21.671478 9.850708,22.94632l3.244873,0.23172c0,-0.23172 5.215088,-23.409851 11.58905,-41.836456c14.022766,-39.866241 8.344116,-76.024071 -17.035889,-107.430412l-2.665466,1.738403zm5.67865,119.251213c1.622498,-0.231812 2.201965,-1.970123 2.31781,-2.317841c0,0 0,0 0,0c0,-1.27478 -3.013123,-34.767059 -3.013123,-34.767059l2.549561,-41.141113l0.695313,-10.430199c0.115906,-1.738312 0.347717,-3.940247 0.347717,-6.605682c0,-3.824432 -0.811218,-9.155334 -2.31781,-14.94989c11.58905,17.151794 17.731201,35.694206 17.731201,55.627373c0,12.863861 -2.433716,26.191254 -7.301086,39.982239c-4.63562,13.327393 -8.575928,28.85672 -10.430115,36.737274c-1.970154,-5.099213 -5.099243,-12.40033 -8.344116,-18.54248c-3.244995,-6.026276 -12.516113,-18.890137 -20.62854,-30.247375l-13.095581,-18.890228c-5.099182,-8.22818 -10.31427,-20.860229 -12.052551,-31.174438c4.287842,5.215027 10.893616,11.704895 20.512573,20.860229l8.923523,8.22818c13.559204,12.863861 17.963074,33.028839 19.817261,41.604767l1.158875,4.172028c0.927185,1.390686 1.970215,1.970123 3.129089,1.854218"/>
    <path fill="#c11b00" fill-rule="nonzero" id="path84" d="m606.298645,165.563385c0,0 -2.665466,-6.258179 -0.927063,-31.985779c1.738342,-25.84362 1.970154,-60.958397 -38.359741,-83.672935c10.314209,16.572266 11.936707,19.469543 15.297485,33.028748c3.360779,13.443298 7.301147,35.114868 12.979797,47.283287c2.31781,6.026337 3.940186,10.661926 2.897278,11.241455c-1.043091,0.695343 -1.506592,-0.463623 -2.317871,-2.433746c-0.811218,-2.086029 -9.503052,-20.280785 -26.075317,-31.522148c-16.804138,-11.357269 -31.869873,-22.714539 -37.664429,-34.071808c2.781372,21.323853 11.125488,28.740784 19.469666,39.286804c9.039429,11.473175 41.256897,35.114861 46.819641,42.879509c5.67865,7.880493 7.880554,9.966614 7.880554,9.966614"/>
    <path fill="#c11b00" fill-rule="nonzero" id="path86" d="m565.621155,50.831825c10.430115,16.688171 11.936707,19.353638 15.18158,32.44931l2.433777,10.661926c2.897278,12.863861 6.142151,27.466034 10.546021,36.968987c0.231812,0.579529 0.695313,1.738373 1.04303,2.665558c-3.708496,-6.721703 -11.473145,-18.890221 -24.22113,-27.466026c-15.877014,-10.661926 -31.406311,-22.251007 -37.084961,-33.376465l-3.013184,0.927063c2.549622,18.890198 9.27124,27.118408 16.572388,35.926117l3.244873,4.056122c4.867371,6.258087 15.99292,15.52932 26.53894,24.568748c9.155334,7.648743 17.731262,14.833984 20.280823,18.426575l8.112366,10.082489l2.549561,-1.854187c-0.115906,0 -2.549561,-6.489899 -0.811218,-31.174561c1.390625,-21.323845 4.056213,-60.842552 -39.170959,-85.179497l-2.201904,2.317841zm33.376465,91.901115c0.695313,-0.347717 1.042969,-1.04306 1.042969,-2.086029c0,-1.854309 -1.042969,-5.099213 -3.244934,-11.009644c-4.287903,-9.155327 -7.648743,-24.336937 -10.430176,-36.389549l-2.549561,-10.777832c-2.781372,-11.357269 -4.751465,-15.761139 -11.009521,-26.191254c25.49585,17.615356 31.522156,40.561707 31.522156,62.928528c0,4.867371 -0.231812,9.618858 -0.463562,14.254509c-0.463623,6.489899 -0.579407,11.704895 -0.579407,15.876953c0,4.635681 0.115784,7.764648 0.463501,10.314301c-1.970093,-2.433746 -3.940308,-4.867401 -3.940308,-4.867401c-2.781372,-3.824402 -11.125488,-10.893707 -20.860229,-19.006012c-10.08252,-8.459984 -21.439758,-18.078941 -26.191284,-23.989403l-3.244873,-4.172028c-6.026367,-7.416962 -11.241455,-14.254456 -14.254517,-26.770691c7.069336,8.923645 18.542419,17.847137 33.608154,27.929657c17.151794,11.704895 25.495911,30.710899 25.611816,30.826805c0.695374,1.854309 1.158875,3.129089 2.433777,3.476715l0.695313,0.347717l1.390686,-0.695343"/>
    <path fill="#c11b00" fill-rule="nonzero" id="path88" d="m574.892395,98.11512c0,0 -5.794556,-27.002502 -16.688293,-42.879551c-10.661926,-15.876919 -32.681091,-29.552031 -55.627411,-36.041914c8.112305,6.489883 13.095612,12.400345 15.992889,17.151808c2.897278,4.751499 20.860352,31.29044 28.972595,39.634556c8.228271,8.459991 21.439758,15.761108 27.35022,22.135101"/>
    <path fill="#c11b00" fill-rule="nonzero" id="path90" d="m501.533691,20.468435c8.807678,6.837601 13.327393,12.863848 15.645203,16.688276c2.781372,4.63559 20.860352,31.406345 29.320313,39.982182c0,0 15.529358,12.632141 15.529358,12.632141l11.820801,9.387024l2.665466,-1.390656c-0.23175,-1.158875 -6.026306,-27.466034 -16.920044,-43.458897c-10.777832,-15.761105 -32.44928,-29.783842 -56.554535,-36.621443l-1.506561,2.781372zm62.34906,66.752947l-15.18158,-12.400238c-8.112366,-8.228271 -26.075439,-34.998962 -28.740906,-39.286926c-2.433655,-3.940218 -6.142151,-7.996462 -10.430145,-12.168505c20.396759,7.301102 38.243866,19.237841 47.3992,32.797014c7.880554,11.589081 13.211487,29.436157 15.297546,37.780334c-3.476746,-2.897278 -8.344116,-6.72168 -8.344116,-6.72168"/>
   </g>
  </g>
 </g>
</svg>